<?xml version="1.0" standalone="no"?>
<!DOCTYPE svg PUBLIC "-//W3C//DTD SVG 20010904//EN"
 "http://www.w3.org/TR/2001/REC-SVG-20010904/DTD/svg10.dtd">
<svg version="1.0" xmlns="http://www.w3.org/2000/svg"
 width="736.000000pt" height="283.000000pt" viewBox="0 0 736.000000 283.000000"
 preserveAspectRatio="xMidYMid meet">

<g transform="translate(0.000000,283.000000) scale(0.100000,-0.100000)"
fill="#000000" stroke="none">
<path d="M2506 2570 l-149 -5 -89 -255 c-250 -722 -281 -812 -318 -913 -15
-42 -25 -79 -21 -81 4 -3 76 -4 160 -3 l154 2 79 225 c43 123 81 226 83 229
10 10 17 -11 41 -115 13 -60 28 -112 32 -116 7 -7 53 39 199 202 56 62 53 51
-55 -256 l-60 -172 155 -7 c102 -5 158 -4 165 3 9 9 80 202 228 622 32 91 96
272 143 402 59 166 80 238 72 242 -7 2 -78 5 -157 5 l-144 1 -31 -33 c-16 -17
-78 -91 -137 -164 -107 -133 -123 -149 -133 -140 -4 5 -42 282 -43 313 0 18
-15 19 -174 14z"/>
<path d="M3385 2543 c-9 -21 -29 -74 -45 -118 -15 -44 -90 -251 -165 -460
-211 -587 -234 -653 -227 -659 3 -3 74 -6 158 -6 l152 0 10 28 c49 138 107
296 122 337 11 28 37 100 59 160 21 61 89 249 150 420 61 170 109 315 107 322
-4 10 -42 13 -156 13 l-150 0 -15 -37z"/>
<path d="M3770 2560 c-11 -21 -71 -182 -240 -650 -49 -135 -118 -326 -154
-424 -36 -99 -65 -180 -64 -181 9 -7 295 -13 305 -7 7 4 43 93 82 197 93 255
91 249 98 241 4 -4 12 -105 18 -224 l10 -217 185 -3 c303 -4 344 10 -620 -218
-129 -30 -282 -66 -340 -80 -554 -134 -566 -136 -715 -137 -277 0 -430 73
-516 248 -33 69 -34 72 -34 200 1 120 3 137 32 222 18 51 49 124 68 163 20 40
35 76 33 82 -4 12 -178 -171 -263 -277 -148 -183 -296 -436 -345 -587 -89
-276 -59 -443 107 -598 84 -79 155 -111 289 -135 148 -26 286 -17 504 31 144
32 287 80 583 193 127 49 354 135 502 191 149 56 347 131 440 167 94 35 361
137 595 225 234 88 556 210 715 270 160 60 495 186 745 279 655 245 700 262
696 266 -2 2 -41 -5 -87 -16 -127 -30 -438 -104 -684 -161 -121 -28 -351 -83
-512 -121 -161 -38 -298 -69 -304 -69 -11 0 -9 16 6 68 7 21 5 22 -67 22 -154
0 -288 12 -288 26 0 8 23 75 51 149 l52 135 152 0 152 0 37 98 c52 134 53 138
24 145 -12 4 -76 7 -140 7 -86 0 -118 3 -118 12 0 17 80 230 93 246 7 9 53 12
167 12 l158 0 37 103 c21 56 40 108 42 115 4 9 -98 12 -489 12 l-495 0 -114
-131 c-157 -180 -159 -182 -166 -175 -3 3 17 70 45 148 28 78 48 145 46 148
-3 3 -72 7 -154 8 -143 4 -149 3 -160 -18z m805 -47 c-7 -31 -100 -279 -296
-793 -72 -190 -133 -353 -136 -362 -19 -63 -27 36 -39 437 l-6 210 167 190
c217 248 305 345 312 345 3 0 2 -12 -2 -27z"/>
</g>
</svg>
