<?xml version="1.0" standalone="no"?>
<!DOCTYPE svg PUBLIC "-//W3C//DTD SVG 20010904//EN"
 "http://www.w3.org/TR/2001/REC-SVG-20010904/DTD/svg10.dtd">
<svg version="1.0" xmlns="http://www.w3.org/2000/svg"
 width="1000.000000pt" height="1000.000000pt" viewBox="0 0 1000.000000 1000.000000"
 preserveAspectRatio="xMidYMid meet">

<g transform="translate(0.000000,1000.000000) scale(0.100000,-0.100000)"
fill="#000000" stroke="none">
<path d="M4782 8220 c-9 -16 -20 -30 -24 -30 -5 0 -8 -5 -8 -11 0 -5 -12 -26
-27 -45 -16 -18 -28 -37 -29 -41 0 -5 -22 -53 -48 -108 -83 -170 -106 -273
-73 -319 20 -28 145 -68 196 -63 27 3 39 2 30 -4 -8 -5 -10 -9 -6 -9 4 0 42
-7 83 -15 41 -9 78 -14 82 -12 4 2 34 1 67 -3 33 -4 64 -5 70 -2 16 10 44 9
39 0 -8 -12 117 -7 133 5 7 5 17 6 23 2 5 -3 10 0 10 8 0 9 -9 12 -30 9 -18
-2 -30 0 -30 7 0 6 7 8 15 5 8 -4 15 -1 15 5 0 6 8 8 18 4 9 -3 14 -2 9 2 -4
5 -27 8 -50 7 -31 -1 -37 1 -22 7 11 5 23 7 27 5 4 -3 9 0 13 5 3 6 12 8 20 4
8 -3 15 -1 15 5 0 6 -16 8 -36 5 -25 -3 -34 -2 -30 6 4 6 11 9 16 6 5 -3 11
-1 15 5 4 6 12 7 18 4 7 -4 8 -3 4 1 -4 5 -29 8 -55 7 -39 -1 -43 0 -24 8 13
6 28 8 32 5 5 -3 11 -1 15 4 3 6 12 8 20 4 8 -3 15 0 15 6 0 15 -63 14 -78 -1
-9 -9 -12 -9 -12 0 0 7 14 15 30 19 17 3 30 10 30 15 0 6 -7 8 -15 4 -8 -3
-15 -1 -15 5 0 6 -6 7 -12 2 -15 -9 -65 -17 -57 -9 3 3 16 7 29 9 13 2 26 9
28 15 2 7 -7 9 -25 6 -22 -4 -25 -2 -16 7 6 6 23 12 37 12 14 0 26 4 26 9 0 5
-10 9 -22 8 -39 -4 -48 0 -42 15 5 11 1 14 -12 9 -14 -4 -15 -3 -6 4 17 11 12
54 -7 60 -9 3 -11 -2 -6 -17 3 -11 2 -21 -3 -21 -5 0 -12 9 -15 21 -4 15 1 22
19 30 14 5 30 9 35 9 5 0 9 6 9 13 0 8 3 7 10 -3 5 -8 13 -11 17 -6 4 5 3 11
-4 13 -7 2 -9 11 -6 19 3 8 0 14 -7 14 -6 0 -9 -4 -5 -10 9 -14 -35 -37 -83
-43 -35 -4 -41 -3 -32 8 6 8 18 11 26 8 8 -3 14 0 14 6 0 6 -5 11 -11 11 -5 0
-7 5 -4 10 11 17 35 12 28 -7 -5 -13 -2 -15 11 -10 10 4 23 7 29 7 6 0 2 7 -9
15 -11 8 -14 15 -6 15 6 0 12 5 12 11 0 5 -5 7 -12 3 -7 -4 -24 -9 -38 -10
-20 -2 -17 1 13 15 21 9 35 20 31 24 -10 9 -26 9 -20 -1 6 -10 -62 -8 -71 3
-5 4 0 5 10 2 17 -6 26 16 10 26 -5 2 -2 2 5 1 6 -2 12 1 12 6 0 6 9 10 20 10
11 0 20 5 20 10 0 12 -2 12 -34 0 -17 -6 -26 -6 -26 0 0 6 5 10 11 10 6 0 9 8
7 18 -2 9 3 22 12 29 13 11 13 12 -2 13 -21 0 -24 16 -5 24 6 3 1 4 -13 3 -14
-1 -31 -8 -38 -14 -17 -16 -36 -17 -26 -2 4 8 -1 9 -17 3 -13 -4 -34 -8 -47
-9 -14 0 -20 -5 -17 -13 3 -7 0 -10 -5 -7 -5 3 -19 1 -29 -5 -11 -6 -33 -12
-48 -14 -22 -2 -29 1 -29 15 0 10 3 16 6 14 4 -2 7 2 7 9 0 8 -6 12 -13 9 -10
-4 -11 3 -2 33 8 32 7 40 -8 51 -26 19 -33 17 -52 -17z m308 -245 c0 -7 -30
-13 -34 -7 -3 4 4 9 15 9 10 1 19 0 19 -2z m-4 -34 c-7 -11 -66 -20 -66 -10 0
4 15 10 33 12 17 2 33 5 35 5 2 1 1 -2 -2 -7z m-110 -46 c-3 -8 -11 -15 -18
-14 -10 0 -10 2 0 6 6 2 12 14 13 26 0 12 3 16 6 9 3 -7 2 -19 -1 -27z m34 5
c0 -5 -5 -10 -11 -10 -5 0 -7 5 -4 10 3 6 8 10 11 10 2 0 4 -4 4 -10z m40 0
c-8 -5 -19 -10 -25 -10 -5 0 -3 5 5 10 8 5 20 10 25 10 6 0 3 -5 -5 -10z m-5
-30 c-3 -5 -16 -10 -28 -9 -20 1 -20 2 3 9 14 4 26 8 28 9 2 1 0 -3 -3 -9z
m32 -26 c-3 -3 -12 -4 -19 -1 -8 3 -5 6 6 6 11 1 17 -2 13 -5z m-82 -14 c3 -5
-1 -10 -10 -10 -9 0 -13 5 -10 10 3 6 8 10 10 10 2 0 7 -4 10 -10z m-55 -8 c0
-4 -9 -8 -20 -9 -11 -1 -20 2 -20 5 0 4 9 8 20 9 11 1 20 -2 20 -5z m200 -2
c0 -5 -2 -10 -4 -10 -3 0 -8 5 -11 10 -3 6 -1 10 4 10 6 0 11 -4 11 -10z m-75
-10 c3 -5 1 -10 -4 -10 -6 0 -11 5 -11 10 0 6 2 10 4 10 3 0 8 -4 11 -10z
m-148 -54 c12 1 20 -3 17 -8 -3 -4 -10 -5 -16 -2 -6 4 -14 0 -19 -7 -6 -9 -9
-10 -9 -2 0 6 -7 19 -17 28 -14 14 -14 18 -2 26 10 6 15 2 19 -14 3 -15 12
-22 27 -21z m27 35 c3 -5 -5 -11 -19 -13 -28 -6 -35 8 -7 15 9 3 18 5 19 6 1
0 4 -3 7 -8z m213 3 c-2 -2 -14 -6 -26 -9 -11 -2 -27 -7 -34 -10 -6 -4 -5 0 4
7 15 12 68 24 56 12z m-32 -34 c-3 -5 -12 -10 -18 -10 -7 0 -6 4 3 10 19 12
23 12 15 0z m55 -54 c0 -3 -4 -8 -10 -11 -5 -3 -10 -1 -10 4 0 6 5 11 10 11 6
0 10 -2 10 -4z m-320 -30 c0 -2 -11 -6 -25 -8 -13 -3 -22 -1 -19 3 5 9 44 13
44 5z m320 -10 c0 -2 -9 -6 -20 -9 -11 -3 -20 -1 -20 4 0 5 9 9 20 9 11 0 20
-2 20 -4z"/>
<path d="M4890 8129 c0 -5 5 -7 10 -4 6 3 10 8 10 11 0 2 -4 4 -10 4 -5 0 -10
-5 -10 -11z"/>
<path d="M5120 8099 c0 -5 5 -7 10 -4 6 3 10 8 10 11 0 2 -4 4 -10 4 -5 0 -10
-5 -10 -11z"/>
<path d="M5160 8080 c0 -5 5 -10 11 -10 5 0 7 5 4 10 -3 6 -8 10 -11 10 -2 0
-4 -4 -4 -10z"/>
<path d="M5140 8040 c0 -5 5 -10 10 -10 6 0 10 5 10 10 0 6 -4 10 -10 10 -5 0
-10 -4 -10 -10z"/>
<path d="M5110 8030 c0 -5 5 -10 10 -10 6 0 10 5 10 10 0 6 -4 10 -10 10 -5 0
-10 -4 -10 -10z"/>
<path d="M5180 8009 c0 -5 5 -7 10 -4 6 3 10 8 10 11 0 2 -4 4 -10 4 -5 0 -10
-5 -10 -11z"/>
<path d="M5180 7879 c0 -5 5 -7 10 -4 6 3 10 8 10 11 0 2 -4 4 -10 4 -5 0 -10
-5 -10 -11z"/>
<path d="M5180 7850 c0 -5 5 -10 10 -10 6 0 10 5 10 10 0 6 -4 10 -10 10 -5 0
-10 -4 -10 -10z"/>
<path d="M5239 7770 c-7 -5 -10 -13 -5 -17 5 -4 11 -3 13 4 2 7 11 9 19 6 8
-3 14 -3 14 0 0 10 -27 15 -41 7z"/>
<path d="M5300 7710 c0 -5 5 -10 11 -10 5 0 7 5 4 10 -3 6 -8 10 -11 10 -2 0
-4 -4 -4 -10z"/>
<path d="M5315 7610 c3 -5 8 -10 11 -10 2 0 4 5 4 10 0 6 -5 10 -11 10 -5 0
-7 -4 -4 -10z"/>
<path d="M6325 7485 c28 -15 58 -34 67 -42 11 -10 24 -13 35 -8 14 6 5 13 -43
35 -83 38 -120 47 -59 15z"/>
<path d="M5930 7423 c-133 -51 -305 -157 -331 -204 -16 -31 6 -22 56 24 64 57
96 77 122 77 12 0 25 4 28 10 9 14 94 50 120 50 21 0 35 17 35 41 0 10 -7 10
-30 2z"/>
<path d="M6505 7400 c-3 -5 1 -10 9 -10 9 0 16 5 16 10 0 6 -4 10 -9 10 -6 0
-13 -4 -16 -10z"/>
<path d="M6420 7373 c-90 -33 -53 -122 74 -178 33 -15 66 -34 73 -43 23 -31
14 -4 -12 34 -25 36 -31 81 -17 117 9 21 55 47 86 47 20 1 20 1 -4 15 -25 14
-168 20 -200 8z"/>
<path d="M6261 7350 c-30 -11 -56 -22 -58 -24 -8 -8 33 -25 74 -32 49 -8 68
10 53 50 -5 14 -11 26 -12 26 -2 -1 -27 -9 -57 -20z"/>
<path d="M6723 7301 c8 -40 12 -45 25 -37 13 8 4 42 -16 58 -14 11 -15 9 -9
-21z"/>
<path d="M6146 7271 c-4 -7 -5 -15 -2 -18 9 -9 19 4 14 18 -4 11 -6 11 -12 0z"/>
<path d="M5468 7163 c7 -3 16 -2 19 1 4 3 -2 6 -13 5 -11 0 -14 -3 -6 -6z"/>
<path d="M6587 7126 c-7 -18 11 -76 24 -76 13 0 10 41 -5 69 -11 19 -14 21
-19 7z"/>
<path d="M6389 7098 c-7 -24 -7 -49 2 -74 9 -30 10 -31 57 -23 26 4 53 8 60 8
19 1 14 19 -7 26 -12 3 -17 12 -14 23 3 14 -2 18 -24 17 -17 0 -27 5 -25 13 1
7 -8 12 -23 12 -14 0 -25 -1 -26 -2z"/>
<path d="M6282 6997 c-27 -29 -28 -37 -3 -30 10 3 21 16 24 29 5 29 6 29 -21
1z"/>
<path d="M6760 6916 c-64 -22 -131 -56 -127 -63 3 -5 -20 -9 -51 -10 -104 -3
-162 -13 -162 -28 0 -12 20 -14 99 -14 129 1 171 -21 216 -111 10 -19 24 -43
33 -52 17 -21 56 -25 49 -5 -3 6 -16 44 -29 82 -12 39 -25 72 -28 75 -21 20
21 90 54 90 6 0 4 4 -4 10 -12 8 -12 10 3 16 9 3 17 10 17 15 0 12 -27 10 -70
-5z"/>
<path d="M6885 6470 c-3 -5 -1 -10 4 -10 6 0 11 5 11 10 0 6 -2 10 -4 10 -3 0
-8 -4 -11 -10z"/>
<path d="M6395 6440 c-16 -4 -46 -11 -66 -14 -20 -4 -62 -22 -95 -42 -32 -20
-77 -42 -99 -49 -65 -21 -7 -18 92 5 48 12 98 19 109 16 14 -4 24 0 28 10 4
10 16 14 33 12 23 -2 30 -10 37 -39 l9 -36 88 30 c87 30 102 44 81 72 -27 37
-142 56 -217 35z m192 -76 c-3 -3 -12 -4 -19 -1 -8 3 -5 6 6 6 11 1 17 -2 13
-5z"/>
<path d="M5140 6420 c0 -5 5 -10 10 -10 6 0 10 5 10 10 0 6 -4 10 -10 10 -5 0
-10 -4 -10 -10z"/>
<path d="M4750 6331 c-8 -6 -18 -7 -22 -5 -4 3 -8 1 -8 -4 0 -5 13 -9 29 -8
18 1 27 5 24 14 -6 14 -4 14 -23 3z"/>
<path d="M4600 6291 c-14 -4 -26 -15 -28 -25 -4 -17 -2 -17 26 2 16 12 32 19
36 15 3 -3 6 -1 6 5 0 13 -3 13 -40 3z"/>
<path d="M7041 6269 c5 -11 16 -16 24 -13 23 9 18 21 -10 26 -21 4 -23 3 -14
-13z"/>
<path d="M7040 6190 c0 -5 5 -10 10 -10 6 0 10 5 10 10 0 6 -4 10 -10 10 -5 0
-10 -4 -10 -10z"/>
<path d="M3560 6170 c8 -5 22 -10 30 -10 13 0 13 1 0 10 -8 5 -22 10 -30 10
-13 0 -13 -1 0 -10z"/>
<path d="M6565 6136 c-16 -8 -64 -25 -105 -38 -61 -19 -77 -29 -93 -55 l-18
-32 25 12 c14 7 26 17 26 24 0 13 31 33 50 33 6 0 16 -13 21 -30 12 -34 15
-35 60 -16 59 25 431 -7 497 -43 10 -5 27 -10 38 -10 31 1 107 -21 132 -37 18
-12 27 -13 37 -4 21 18 49 -3 77 -56 22 -42 34 -53 41 -39 1 3 -14 29 -33 58
-32 49 -39 54 -116 80 -45 15 -89 27 -99 27 -9 0 -54 9 -99 19 -44 11 -148 27
-229 36 -126 14 -255 42 -207 44 13 1 13 2 0 11 -12 8 -11 10 7 10 12 0 25 5
28 10 8 14 -4 12 -40 -4z"/>
<path d="M4007 6085 c-4 -8 -3 -16 1 -19 9 -5 32 20 25 28 -10 10 -21 7 -26
-9z"/>
<path d="M4015 6010 c27 -12 43 -12 25 0 -8 5 -22 9 -30 9 -10 0 -8 -3 5 -9z"/>
<path d="M6120 5931 c0 -10 19 -25 25 -20 1 2 -3 10 -11 17 -8 7 -14 8 -14 3z"/>
<path d="M4914 5878 c-10 -13 -12 -17 -4 -11 8 6 18 12 23 12 8 1 11 11 4 17
-2 2 -12 -6 -23 -18z"/>
<path d="M7190 5793 c0 -1 14 -9 32 -17 47 -24 71 -20 50 9 -5 8 -82 15 -82 8z"/>
<path d="M6520 5760 c0 -5 7 -10 15 -10 8 0 15 5 15 10 0 6 -7 10 -15 10 -8 0
-15 -4 -15 -10z"/>
<path d="M4887 5723 c-4 -3 -7 -13 -7 -22 1 -13 3 -13 11 2 11 19 8 33 -4 20z"/>
<path d="M6750 5651 c-191 -102 -201 -109 -194 -139 7 -30 24 -53 24 -33 0 14
40 69 40 55 0 -5 5 -1 11 9 6 9 14 15 20 12 5 -4 9 0 9 7 0 7 9 19 20 26 17
10 20 10 20 -2 0 -8 10 -22 22 -30 29 -21 48 -4 29 26 -11 18 -11 22 3 30 9 5
14 13 11 19 -4 5 2 6 11 2 12 -4 15 -3 10 5 -5 8 1 12 18 12 14 0 26 5 26 10
0 18 109 11 155 -10 25 -11 73 -23 107 -25 81 -7 55 5 -100 46 -62 16 -118 31
-125 33 -6 2 -59 -22 -117 -53z"/>
<path d="M7170 5610 c8 -5 20 -10 25 -10 6 0 3 5 -5 10 -8 5 -19 10 -25 10 -5
0 -3 -5 5 -10z"/>
<path d="M7220 5585 c7 -9 15 -13 17 -11 7 7 -7 26 -19 26 -6 0 -6 -6 2 -15z"/>
<path d="M7250 5532 c0 -57 10 -70 68 -92 32 -12 67 -26 79 -30 23 -9 46 -66
41 -102 -3 -21 -9 -23 -77 -26 l-73 -3 46 -29 c26 -17 57 -30 70 -30 27 0 46
-19 74 -76 22 -43 58 -71 48 -36 -3 9 -13 46 -22 81 -9 35 -25 84 -36 110 -31
71 -58 162 -52 172 3 5 13 9 22 10 12 0 13 2 4 6 -8 3 -36 20 -63 38 -34 22
-62 33 -89 33 -37 1 -40 -1 -40 -26z"/>
<path d="M6465 5480 c-3 -5 -1 -10 4 -10 6 0 11 5 11 10 0 6 -2 10 -4 10 -3 0
-8 -4 -11 -10z"/>
<path d="M6213 5444 c-3 -8 1 -22 9 -30 13 -13 14 -11 10 16 -5 34 -10 37 -19
14z"/>
<path d="M4300 5361 c-22 -6 -19 -14 10 -19 3 -1 26 -8 52 -16 l47 -14 -15 29
c-15 30 -39 35 -94 20z"/>
<path d="M3940 5310 l-65 -5 80 -18 c173 -39 203 -49 298 -94 53 -26 97 -52
97 -60 0 -7 5 -13 10 -13 6 0 10 -4 10 -10 0 -5 -9 -10 -21 -10 -15 0 -19 -5
-15 -15 3 -8 1 -15 -5 -15 -6 0 -3 -7 6 -16 9 -9 19 -29 22 -45 3 -16 10 -29
15 -29 6 0 8 -7 5 -15 -4 -8 -2 -17 4 -20 5 -4 7 -11 3 -16 -3 -5 0 -16 6 -24
7 -8 9 -15 4 -15 -4 0 -1 -6 8 -12 9 -7 18 -25 22 -40 4 -16 13 -28 21 -28 9
0 12 -6 9 -15 -4 -9 -14 -14 -23 -11 -9 2 -29 7 -46 10 l-30 6 30 -17 c17 -10
33 -17 38 -18 4 0 7 -4 6 -10 0 -5 8 -13 18 -17 17 -8 -31 -3 -82 7 -11 2 -8
-1 8 -7 15 -7 27 -15 27 -20 0 -4 6 -8 14 -8 7 0 19 -7 26 -15 11 -13 8 -15
-21 -15 -26 0 -30 -3 -19 -10 24 -15 2 -12 -89 15 -121 36 -142 30 -36 -10
136 -50 159 -61 143 -68 -8 -3 -21 -1 -29 4 -8 5 -23 9 -34 8 -15 0 -11 -5 15
-18 41 -23 78 -62 72 -79 -2 -7 1 -12 6 -12 5 0 9 -15 9 -32 0 -18 3 -43 7
-55 5 -16 3 -23 -6 -23 -8 -1 -6 -6 6 -15 18 -14 15 -15 -40 -16 -59 -2 -59
-2 -21 -12 20 -6 37 -14 37 -19 0 -4 0 -11 -1 -15 0 -5 10 -11 23 -15 14 -3
-2 -7 -42 -8 l-65 -1 50 -15 c28 -8 55 -15 62 -16 7 -1 10 -5 7 -10 -3 -4 -29
-8 -57 -9 l-52 -1 40 -13 c34 -12 36 -14 15 -16 -14 -1 -52 -1 -85 -1 -44 1
-55 -1 -40 -7 27 -13 19 -13 -135 4 -74 9 -173 20 -220 25 -47 5 -182 16 -300
25 -343 25 -450 45 -506 97 l-22 20 -7 -42 c-9 -55 7 -72 77 -77 209 -15 535
-49 988 -103 126 -15 224 -30 229 -36 3 -3 -1 -9 -9 -14 -13 -8 -12 -10 3 -10
19 0 20 -29 2 -42 -5 -4 -2 -10 8 -14 24 -9 21 -24 -5 -24 -20 -1 -21 -2 -7
-13 17 -13 22 -50 6 -40 -6 4 -8 -2 -5 -15 4 -12 2 -25 -4 -28 -6 -4 -5 -9 3
-14 10 -7 10 -12 0 -23 -8 -10 -9 -17 -1 -22 16 -10 12 -25 -5 -19 -11 4 -13
2 -9 -9 6 -17 -7 -27 -50 -38 -29 -6 -28 -7 14 -9 l45 -2 -45 -13 -45 -13 45
-2 c42 -2 43 -2 16 -10 -16 -5 -34 -6 -40 -3 -7 4 -8 2 -1 -5 6 -5 19 -12 30
-14 11 -2 -32 -10 -95 -17 -202 -23 -306 -39 -271 -40 19 0 32 -3 30 -5 -11
-11 -957 -106 -1056 -106 -23 0 -65 9 -92 20 -46 18 -50 18 -53 2 -6 -24 9
-74 24 -84 26 -17 529 22 1138 87 154 17 428 31 419 22 -3 -4 -41 -13 -85 -21
l-79 -15 103 6 c56 3 102 3 102 0 0 -4 -18 -11 -40 -17 -50 -13 -52 -30 -4
-30 21 0 33 -4 29 -10 -3 -5 -17 -10 -31 -10 -31 0 -31 -16 1 -24 14 -4 25
-11 25 -17 0 -6 -4 -8 -9 -5 -5 3 -11 -3 -14 -14 -3 -11 -1 -23 5 -26 6 -4 5
-10 -3 -15 -8 -4 -15 -13 -15 -19 -1 -5 -3 -13 -4 -17 -1 -5 -1 -18 0 -30 1
-16 -9 -29 -32 -43 -44 -27 -61 -26 -54 3 4 15 2 13 -6 -5 -9 -21 -25 -32 -62
-44 -28 -9 -65 -22 -83 -30 -17 -8 -34 -14 -38 -14 -3 0 -32 -13 -63 -28 -31
-16 -81 -37 -109 -47 -29 -10 -53 -22 -53 -26 0 -7 167 39 250 69 64 23 128
38 117 26 -26 -27 -321 -120 -677 -213 -229 -60 -296 -71 -560 -91 -105 -8
-238 -35 -227 -46 6 -6 374 15 443 26 140 21 709 171 919 242 35 11 61 16 63
10 3 -9 54 1 117 23 18 6 18 5 3 -5 -22 -13 -24 -34 -3 -26 8 3 15 1 15 -5 0
-5 -7 -12 -16 -16 -13 -5 -13 -7 -2 -14 10 -6 8 -9 -7 -9 -16 0 -17 -2 -6 -9
8 -5 20 -7 28 -4 7 3 13 0 13 -6 0 -6 -5 -11 -11 -11 -6 0 -9 -7 -5 -15 3 -9
0 -15 -10 -15 -10 0 -14 -8 -12 -22 3 -20 8 -23 43 -21 33 2 36 1 18 -7 -13
-5 -23 -13 -23 -19 0 -5 -9 -11 -20 -14 -12 -3 -20 -14 -20 -26 0 -12 -6 -21
-14 -21 -8 0 -17 -8 -20 -17 -3 -10 -24 -28 -46 -41 -22 -12 -40 -27 -40 -32
0 -6 -8 -10 -18 -10 -10 0 -24 -9 -32 -19 -7 -11 -31 -23 -53 -27 -28 -4 -36
-9 -26 -15 10 -6 8 -9 -8 -9 -13 0 -25 1 -27 3 -2 1 -12 -5 -22 -14 -11 -9
-28 -19 -38 -23 -10 -3 -17 -9 -14 -11 5 -5 103 26 143 44 11 5 49 19 84 31
36 12 72 25 82 31 11 6 36 5 69 -3 l51 -12 -48 -18 c-26 -10 -129 -41 -228
-69 -99 -28 -223 -65 -275 -82 -91 -30 -93 -32 -60 -38 32 -6 30 -6 -17 -8
-28 0 -54 -5 -58 -10 -3 -5 -18 -9 -33 -9 -16 1 -96 -16 -180 -37 -121 -31
-148 -41 -135 -50 16 -12 315 -11 334 1 20 12 61 11 66 -1 2 -8 14 -12 26 -10
64 9 137 15 277 21 85 3 166 7 179 9 14 1 41 -2 60 -6 20 -5 64 -9 99 -10 34
-1 62 -6 62 -11 0 -6 9 -8 20 -5 11 3 20 1 20 -4 0 -5 18 -9 39 -9 22 0 41 -5
43 -12 2 -6 24 -12 47 -14 24 -1 52 -9 63 -18 14 -13 23 -14 32 -6 10 7 17 6
26 -6 8 -8 22 -13 32 -11 10 3 24 0 31 -6 6 -7 26 -12 42 -13 68 -2 82 -5 102
-23 17 -17 33 -19 102 -16 46 1 81 -1 81 -7 0 -5 9 -6 20 -3 12 4 28 1 36 -6
13 -10 17 -10 24 2 8 12 14 11 39 -4 16 -9 43 -17 60 -17 22 0 31 -5 31 -16 0
-12 6 -15 24 -10 13 3 26 2 28 -4 2 -5 17 -11 33 -13 48 -6 104 -29 108 -46 4
-13 5 -13 6 2 1 20 27 23 38 3 8 -13 47 -26 96 -30 15 -2 37 -8 50 -14 12 -6
44 -18 72 -27 27 -9 53 -21 56 -27 5 -8 16 -6 34 6 36 23 85 27 107 9 11 -10
31 -14 57 -11 31 3 41 0 44 -13 5 -20 69 -32 79 -15 5 7 12 4 22 -9 8 -11 27
-21 43 -22 15 -1 40 -4 56 -6 15 -2 37 -4 50 -5 18 -2 19 -4 7 -13 -12 -8 -12
-9 5 -7 11 1 26 -1 34 -6 8 -5 16 -4 21 4 5 8 9 7 14 -5 4 -11 12 -14 25 -10
11 3 21 0 24 -9 4 -9 14 -12 26 -9 12 3 21 1 21 -6 0 -6 11 -8 29 -5 16 4 32
1 35 -5 4 -6 16 -11 26 -11 10 0 23 -7 28 -16 7 -13 25 -17 71 -18 34 -1 64 1
66 4 6 10 56 4 64 -8 12 -20 62 -32 137 -32 72 0 85 -5 63 -27 -7 -7 3 -12 33
-16 56 -7 130 0 138 13 9 15 243 12 268 -4 8 -4 23 -1 38 9 27 17 49 11 24 -6
-11 -8 -3 -8 25 -3 22 3 65 9 95 13 41 4 56 10 58 24 2 11 -3 17 -14 17 -10 0
-36 9 -59 20 -33 16 -76 22 -213 30 -184 10 -195 12 -377 41 -222 35 -310 68
-805 308 -52 25 -274 180 -295 206 -6 7 -51 29 -100 50 -83 34 -151 74 -268
160 -42 30 -55 34 -90 30 -23 -3 -116 -10 -207 -14 -215 -12 -421 -31 -440
-41 -17 -8 -113 -23 -175 -26 -94 -4 -372 -24 -400 -29 -84 -13 -175 -16 -175
-6 0 5 17 13 38 17 20 3 64 13 97 21 125 31 611 95 656 86 42 -8 533 28 579
43 10 4 0 19 -35 54 -103 100 -205 245 -212 302 -5 33 -11 39 -67 67 -79 39
-155 111 -171 160 -3 11 -13 27 -21 35 -14 15 -131 255 -163 336 -74 187 -201
698 -201 808 0 46 -2 51 -32 66 -18 8 -26 16 -17 16 8 0 20 -5 27 -12 15 -15
15 -11 1 163 -15 178 -15 202 0 284 l12 71 -66 66 -66 66 -127 20 c-112 19
-212 31 -292 35 -14 1 -54 0 -90 -3z m515 -1280 c-3 -5 -12 -10 -18 -10 -7 0
-6 4 3 10 19 12 23 12 15 0z m-165 -810 c-8 -5 -22 -9 -30 -9 -10 0 -8 3 5 9
27 12 43 12 25 0z m290 6 c0 -9 -30 -14 -35 -6 -4 6 3 10 14 10 12 0 21 -2 21
-4z m30 -53 c2 -2 -2 -8 -9 -12 -7 -5 -10 -14 -7 -20 4 -6 2 -11 -3 -11 -6 0
-11 -9 -11 -20 0 -25 17 -26 23 -2 3 12 5 10 7 -8 2 -24 3 -24 10 5 8 30 8 30
9 3 1 -17 -9 -36 -29 -55 -16 -15 -30 -35 -30 -44 0 -9 -7 -22 -15 -29 -9 -7
-13 -15 -10 -18 2 -3 -4 -13 -15 -22 -13 -12 -18 -24 -13 -35 4 -12 3 -16 -5
-11 -6 3 -23 -5 -39 -20 -15 -14 -35 -32 -44 -40 -9 -8 -23 -14 -31 -14 -18 0
-41 -24 -31 -33 8 -9 -26 -7 -57 3 -17 6 -19 8 -7 9 10 1 33 8 53 16 19 8 37
14 39 14 3 0 15 10 27 21 12 11 28 20 35 20 7 0 12 3 11 8 -1 4 10 21 26 37
47 50 69 110 70 197 1 73 2 77 21 72 11 -4 22 -8 25 -11z m-345 -373 c-3 -5
-16 -10 -28 -9 -21 0 -21 1 -2 9 28 12 37 12 30 0z m-255 -206 c-25 -7 -67
-16 -95 -19 -53 -5 -38 2 50 23 64 15 97 13 45 -4z m-167 -31 c-7 -2 -21 -2
-30 0 -10 3 -4 5 12 5 17 0 24 -2 18 -5z"/>
<path d="M4851 5264 c0 -11 3 -14 6 -6 3 7 2 16 -1 19 -3 4 -6 -2 -5 -13z"/>
<path d="M6600 5240 c0 -5 7 -10 15 -10 8 0 15 5 15 10 0 6 -7 10 -15 10 -8 0
-15 -4 -15 -10z"/>
<path d="M4861 5214 c0 -11 3 -14 6 -6 3 7 2 16 -1 19 -3 4 -6 -2 -5 -13z"/>
<path d="M7015 5181 c-79 -32 -78 -36 13 -38 66 -2 81 0 62 8 -13 6 -20 13
-15 17 17 12 16 32 -2 31 -10 -1 -36 -8 -58 -18z"/>
<path d="M6323 4965 c-7 -19 25 -57 46 -53 18 4 11 23 -9 23 -10 0 -14 8 -12
23 4 25 -15 30 -25 7z"/>
<path d="M4882 4945 c41 -256 83 -446 133 -605 25 -81 90 -262 105 -295 5 -11
23 -51 40 -90 17 -38 36 -78 41 -88 6 -10 20 -37 32 -60 11 -23 35 -64 53 -92
17 -27 43 -76 58 -108 17 -36 41 -67 64 -84 20 -14 87 -76 147 -137 61 -61
155 -152 210 -201 55 -49 129 -116 165 -150 36 -34 85 -71 110 -82 25 -11 74
-41 110 -67 153 -109 189 -134 259 -176 41 -25 87 -52 103 -61 15 -9 33 -21
40 -27 26 -20 205 -114 308 -160 36 -16 99 -45 140 -64 42 -20 87 -39 100 -43
14 -4 43 -17 65 -28 52 -28 105 -47 129 -47 21 0 119 -33 183 -61 24 -11 120
-37 215 -59 95 -23 211 -50 258 -61 47 -11 90 -21 96 -23 7 -1 19 -7 27 -14
12 -10 20 -7 47 18 18 17 45 38 61 47 46 27 45 46 -1 23 -22 -11 -40 -25 -40
-31 0 -6 -7 -9 -15 -5 -8 3 -15 1 -15 -4 0 -15 -31 -12 -96 10 -32 12 -83 23
-113 25 -67 6 -171 34 -171 47 0 5 -4 7 -9 3 -5 -3 -12 -1 -16 5 -3 5 -37 10
-76 10 -44 0 -69 4 -69 11 0 6 -7 8 -16 5 -9 -4 -22 -2 -28 2 -6 5 -24 12 -40
16 -30 7 -49 22 -59 46 -3 9 -6 10 -6 3 -1 -14 -41 -18 -41 -5 0 10 -67 32
-120 39 -53 7 -90 28 -90 54 0 10 -5 21 -12 25 -7 4 -8 3 -4 -4 4 -7 4 -12 1
-12 -19 0 -215 83 -225 95 -6 8 -35 21 -63 31 -29 9 -56 20 -62 24 -9 7 -50
29 -234 127 -36 19 -77 43 -92 54 -15 10 -31 19 -36 19 -11 0 -197 121 -242
157 -36 29 -43 35 -137 97 -33 21 -63 44 -69 51 -5 7 -32 30 -60 50 -185 138
-419 377 -475 484 -14 28 -21 94 -10 101 5 3 2 14 -6 24 -13 18 -14 14 -14
-37 0 -32 7 -74 15 -95 l16 -37 -25 25 c-13 14 -33 39 -43 57 -119 208 -152
269 -207 384 -57 122 -130 321 -184 504 -22 72 -50 204 -76 359 -9 49 -21 94
-27 100 -8 8 -10 3 -7 -19z"/>
<path d="M3390 4954 c0 -24 105 -58 475 -154 83 -21 158 -42 168 -45 9 -4 17
-5 17 -2 0 10 -359 127 -530 172 -47 13 -95 26 -107 30 -13 4 -23 3 -23 -1z"/>
<path d="M7196 4920 c30 -30 35 -32 105 -31 41 0 97 5 126 10 54 11 94 4 135
-23 21 -13 27 -14 43 -2 28 20 9 36 -43 36 -26 0 -92 7 -147 15 -55 7 -134 17
-175 20 l-75 7 31 -32z"/>
<path d="M6751 4921 c-27 -18 31 -23 79 -7 l45 14 -55 1 c-30 0 -62 -3 -69 -8z"/>
<path d="M6550 4901 c-49 -4 -65 -8 -45 -11 44 -8 155 0 155 11 0 5 -8 8 -17
7 -10 -1 -52 -4 -93 -7z"/>
<path d="M7686 4865 c4 -8 11 -15 16 -15 6 0 5 6 -2 15 -7 8 -14 15 -16 15 -2
0 -1 -7 2 -15z"/>
<path d="M2187 4809 c-9 -5 -21 -8 -26 -5 -13 8 -42 -29 -36 -45 3 -9 -17 -38
-52 -73 -46 -47 -53 -57 -33 -51 14 4 31 14 37 24 32 41 48 58 54 55 8 -5 109
86 109 98 0 11 -31 10 -53 -3z"/>
<path d="M4357 4689 c7 -7 15 -10 18 -7 3 3 -2 9 -12 12 -14 6 -15 5 -6 -5z"/>
<path d="M1815 4490 c-31 -30 -108 -40 -320 -39 -189 1 -335 -14 -335 -33 0
-5 8 -7 18 -4 30 8 339 18 361 11 11 -3 21 -14 21 -22 0 -13 4 -12 24 6 18 17
40 23 97 28 70 5 146 35 164 63 11 17 -10 11 -30 -10z"/>
<path d="M2074 4435 c3 -11 6 -33 6 -48 0 -16 4 -26 10 -22 6 3 10 19 10 35
l0 28 83 -5 c194 -10 508 -34 521 -39 8 -3 11 -15 8 -32 -3 -15 -1 -24 3 -20
4 4 16 -3 26 -16 28 -35 74 -41 118 -14 20 12 44 32 53 43 16 19 15 20 -20 28
-20 4 -43 5 -50 2 -8 -3 -20 1 -26 8 -17 21 -198 40 -624 65 -120 7 -123 7
-118 -13z"/>
<path d="M2911 4429 c-13 -10 -19 -19 -14 -19 13 0 49 27 43 33 -3 3 -16 -3
-29 -14z"/>
<path d="M2051 4404 c0 -11 3 -14 6 -6 3 7 2 16 -1 19 -3 4 -6 -2 -5 -13z"/>
<path d="M1389 4379 c-9 -6 8 -9 48 -9 34 0 64 4 68 10 7 12 -97 11 -116 -1z"/>
<path d="M1283 4373 c9 -2 23 -2 30 0 6 3 -1 5 -18 5 -16 0 -22 -2 -12 -5z"/>
<path d="M1300 4309 c-95 -5 -88 -5 68 -7 116 -1 172 1 172 9 0 10 -15 10
-240 -2z"/>
<path d="M2076 4290 c10 -10 361 -30 527 -30 104 0 135 13 39 17 -31 2 -127 7
-212 13 -198 13 -367 13 -354 0z"/>
<path d="M4228 4223 c6 -2 18 -2 25 0 6 3 1 5 -13 5 -14 0 -19 -2 -12 -5z"/>
<path d="M5431 3744 c0 -11 3 -14 6 -6 3 7 2 16 -1 19 -3 4 -6 -2 -5 -13z"/>
<path d="M4258 3733 c6 -2 18 -2 25 0 6 3 1 5 -13 5 -14 0 -19 -2 -12 -5z"/>
<path d="M2665 3643 c-10 -15 -28 -36 -39 -46 -12 -11 -15 -17 -7 -15 18 5 77
76 69 83 -3 3 -13 -7 -23 -22z"/>
<path d="M2648 3571 c-1 -4 -21 -11 -43 -15 -30 -5 -36 -4 -25 4 12 9 12 10
-5 6 -11 -2 -193 -7 -405 -11 -395 -6 -470 -10 -470 -27 0 -8 481 -4 685 5 37
2 40 0 43 -25 3 -22 9 -28 27 -28 13 0 25 -6 28 -12 2 -8 23 -13 54 -13 41 0
55 5 75 25 20 21 58 83 58 97 0 7 -19 3 -22 -6z"/>
<path d="M1650 3535 c0 -2 8 -23 17 -46 14 -37 17 -40 24 -21 9 24 -10 72 -28
72 -7 0 -13 -2 -13 -5z"/>
<path d="M1133 3510 c-89 -3 -166 -10 -170 -14 -4 -5 61 -6 145 -2 143 6 153
5 160 -12 6 -17 9 -16 30 10 14 17 18 27 10 26 -7 -1 -86 -4 -175 -8z"/>
<path d="M4360 3450 c0 -5 5 -10 10 -10 6 0 10 5 10 10 0 6 -4 10 -10 10 -5 0
-10 -4 -10 -10z"/>
<path d="M2320 3429 c-58 -4 -207 -7 -331 -8 -221 -1 -289 -6 -289 -21 0 -14
696 5 721 20 22 14 9 15 -101 9z"/>
<path d="M1280 3422 c0 -11 27 -42 37 -42 3 0 -2 10 -13 23 -10 12 -20 24 -21
26 -2 2 -3 -1 -3 -7z"/>
<path d="M1180 3384 c-14 -2 -65 -6 -113 -9 -49 -4 -86 -9 -83 -12 3 -3 64 -2
137 2 80 5 126 11 118 16 -8 5 -18 8 -24 7 -5 0 -21 -2 -35 -4z"/>
<path d="M1542 3215 c0 -11 -2 -28 -7 -38 -4 -10 -5 -21 -1 -24 3 -3 1 -12 -5
-20 -6 -7 -9 -13 -6 -13 4 0 0 -19 -8 -42 -13 -38 -13 -41 0 -24 8 11 15 26
15 33 0 7 4 13 9 13 15 0 24 82 12 110 -9 20 -11 21 -9 5z"/>
<path d="M2631 3094 c0 -11 3 -14 6 -6 3 7 2 16 -1 19 -3 4 -6 -2 -5 -13z"/>
<path d="M3750 3080 c-9 -6 -10 -10 -3 -10 6 0 15 5 18 10 8 12 4 12 -15 0z"/>
<path d="M3708 3063 c7 -3 16 -2 19 1 4 3 -2 6 -13 5 -11 0 -14 -3 -6 -6z"/>
<path d="M3640 3050 c-20 -6 -21 -8 -5 -8 11 0 29 3 40 8 25 11 -1 11 -35 0z"/>
<path d="M2620 3010 c-3 -84 -11 -134 -22 -141 -9 -6 0 -13 24 -24 21 -8 39
-15 41 -15 9 0 5 115 -4 126 -5 6 -15 29 -23 50 l-15 39 -1 -35z"/>
<path d="M1540 2971 c0 -6 4 -13 10 -16 6 -3 7 1 4 9 -7 18 -14 21 -14 7z"/>
<path d="M3885 2660 c-13 -5 -14 -9 -5 -9 8 0 24 4 35 9 13 5 14 9 5 9 -8 0
-24 -4 -35 -9z"/>
<path d="M3685 2590 c-13 -5 -14 -9 -5 -9 8 0 24 4 35 9 13 5 14 9 5 9 -8 0
-24 -4 -35 -9z"/>
<path d="M2663 2550 c0 -25 2 -35 4 -22 2 12 2 32 0 45 -2 12 -4 2 -4 -23z"/>
<path d="M3260 2440 c0 -5 7 -10 15 -10 8 0 15 5 15 10 0 6 -7 10 -15 10 -8 0
-15 -4 -15 -10z"/>
<path d="M3218 2433 c6 -2 18 -2 25 0 6 3 1 5 -13 5 -14 0 -19 -2 -12 -5z"/>
<path d="M8240 2190 c-8 -5 -12 -11 -9 -14 2 -3 11 -1 19 4 8 5 12 11 9 14 -2
3 -11 1 -19 -4z"/>
<path d="M8045 2010 c4 -6 11 -8 16 -5 14 9 11 15 -7 15 -8 0 -12 -5 -9 -10z"/>
<path d="M8620 2000 c0 -5 5 -10 10 -10 6 0 10 5 10 10 0 6 -4 10 -10 10 -5 0
-10 -4 -10 -10z"/>
<path d="M8575 1980 c-3 -5 1 -10 9 -10 9 0 16 5 16 10 0 6 -4 10 -9 10 -6 0
-13 -4 -16 -10z"/>
<path d="M7640 1926 c33 -18 112 -27 130 -16 17 11 -6 16 -95 24 -54 4 -57 3
-35 -8z"/>
</g>
</svg>
